<?xml version="1.0" encoding="utf-8"?>
<!-- Generator: Adobe Illustrator 19.2.1, SVG Export Plug-In . SVG Version: 6.00 Build 0)  -->
<svg version="1.1" id="Layer_1" xmlns="http://www.w3.org/2000/svg" xmlns:xlink="http://www.w3.org/1999/xlink" x="0px" y="0px"
	 viewBox="0 0 29.5 566.5" style="enable-background:new 0 0 29.5 566.5;" xml:space="preserve">
<style type="text/css">
	.st0{fill:#E0162A;}
</style>
<path class="st0" d="M0,0v566.5h29.6V283h0.1V0H0z M5,6.1c0.1-1.2,1.1-2.2,2.2-2.2h15.2C23.6,4,24.6,5,24.6,6.1l-0.1,2.4
	c-0.1,1.2-1.1,2.2-2.2,2.2H7.2C6,10.6,5,9.6,5,8.5V6.1z M4.9,315.9c0.1-1.2,1.1-2.2,2.2-2.2h15.2c1.2,0.1,2.2,1.1,2.2,2.2v2.4
	c-0.1,1.1-1.1,2.1-2.2,2.1H7.1c-1.2,0-2.2-1-2.2-2.1V315.9z M4.9,295.8c0.1-1.2,1.1-2.2,2.2-2.2h15.2c1.2,0.1,2.2,1.1,2.2,2.2v2.4
	c-0.1,1.2-1.1,2.2-2.2,2.2H7.2C6,300.3,5,299.3,5,298.2L4.9,295.8z M4.9,456.6c0.1-1.1,1.1-2.1,2.2-2.1h15.2c1.2,0,2.2,1,2.2,2.1
	v2.4c-0.1,1.1-1.1,2.1-2.2,2.1H7.1c-1.2,0-2.2-1-2.2-2.1V456.6z M24.6,559.6c-0.1,1.1-1.1,2.1-2.2,2.1H7.2C6,561.6,5,560.6,5,559.5
	v-2.3c0.1-1.1,1.1-2.1,2.2-2.1h15.2c1.2,0,2.2,1,2.2,2.1V559.6z M24.6,539.5c-0.1,1.1-1.1,2.1-2.2,2.1H7.2C6,541.5,5,540.5,5,539.4
	l0.1-2.4c0.1-1.1,1.1-2.1,2.2-2.1h15.1c1.2,0,2.2,1,2.2,2.1V539.5z M24.6,519.3c-0.1,1.1-1.1,2.1-2.2,2.1H7.2c-1.2,0-2.2-1-2.2-2.1
	V517c0.1-1.2,1.1-2.2,2.2-2.2h15.2c1.2,0.1,2.2,1.1,2.2,2.2V519.3z M24.6,499.2c-0.1,1.2-1.1,2.2-2.2,2.2H7.2
	C6,501.3,5,500.3,5,499.2v-2.5c0.1-1.1,1.1-2.1,2.2-2.1h15.2c1.2,0.1,2.2,1.1,2.2,2.2V499.2z M24.6,479.1c-0.1,1.1-1.1,2.1-2.2,2.1
	H7.2c-1.2,0-2.2-1-2.2-2.1v-2.4c0.1-1.1,1.1-2.1,2.2-2.1h15.2c1.2,0,2.2,1,2.2,2.1V479.1z M24.6,438.9c-0.1,1.2-1.1,2.2-2.2,2.2H7.2
	C6,441,5,440,5,438.9v-2.4c0.1-1.1,1.1-2.1,2.2-2.1h15.2c1.2,0,2.2,1,2.2,2.1V438.9z M24.6,418.8c-0.1,1.2-1.1,2.2-2.2,2.2H7.2
	C6,420.9,5,419.9,5,418.8v-2.4c0.1-1.1,1.1-2.1,2.2-2.1h15.2c1.2,0,2.2,1,2.2,2.1V418.8z M24.6,398.6c-0.1,1.1-1.1,2.1-2.2,2.1H7.2
	c-1.2,0-2.2-1-2.2-2.1v-2.4c0.1-1.2,1.1-2.2,2.2-2.2h15.2c1.2,0.1,2.2,1.1,2.2,2.2V398.6z M24.6,378.6c-0.1,1.2-1.1,2.2-2.2,2.2H7.2
	C6,380.7,5,379.7,5,378.6v-2.4c0.1-1.2,1.1-2.2,2.2-2.2h15.2c1.2,0.1,2.2,1.1,2.2,2.2V378.6z M24.6,358.5c-0.1,1.2-1.1,2.2-2.2,2.2
	H7.2C6,360.6,5,359.6,5,358.5V356c0.1-1.1,1.1-2.1,2.2-2.1h15.2c1.2,0.1,2.2,1.1,2.2,2.2V358.5z M24.6,338.3
	c-0.1,1.2-1.1,2.2-2.2,2.2H7.2C6,340.4,5,339.4,5,338.3v-2.4c0.1-1.1,1.1-2.1,2.2-2.1h15.2c1.2,0,2.2,1,2.2,2.1V338.3z M24.6,269.8
	c-0.1,1.1-1.1,2.1-2.2,2.1H7.2c-1.2,0-2.2-1-2.2-2.1v-2.4c0.1-1.1,1.1-2.1,2.2-2.1h15.2c1.2,0,2.2,1,2.2,2.1V269.8z M24.7,249.7
	c-0.1,1.1-1.1,2.1-2.2,2.1H7.3c-1.2,0-2.2-1-2.2-2.1v-2.4c0.1-1.2,1.1-2.1,2.3-2.2h15.1c1.2,0.1,2.2,1.1,2.2,2.2V249.7z M24.7,229.6
	c-0.1,1.2-1.1,2.2-2.2,2.2H7.3c-1.2-0.1-2.2-1-2.2-2.2v-2.4c0.1-1.1,1.1-2.1,2.2-2.1h15.2c1.2,0,2.2,1,2.2,2.1V229.6z M24.7,209.5
	c-0.1,1.2-1.1,2.2-2.2,2.2H7.3c-1.2-0.1-2.2-1.1-2.2-2.3V207c0.1-1.1,1.1-2.1,2.2-2.1h15.2c1.2,0.1,2.2,1.1,2.2,2.2V209.5z
	 M24.7,189.4c-0.1,1.1-1.1,2.1-2.2,2.1H7.3c-1.2,0-2.2-1-2.2-2.1V187c0.1-1.2,1.1-2.2,2.2-2.2h15.2c1.2,0.1,2.2,1.1,2.2,2.2V189.4z
	 M24.7,169.3c-0.1,1.1-1.1,2.1-2.2,2.1H7.3c-1.2,0-2.2-1-2.2-2.1v-2.4c0.1-1.2,1.1-2.2,2.2-2.2h15.2c1.2,0.1,2.2,1.1,2.2,2.2V169.3z
	 M24.7,149.2c-0.1,1.2-1.1,2.2-2.2,2.2H7.3c-1.2-0.1-2.2-1.1-2.2-2.2v-2.4c0.1-1.2,1.1-2.1,2.2-2.1h15.2c1.2,0,2.2,1,2.2,2.1V149.2z
	 M24.7,129c-0.1,1.2-1.1,2.2-2.2,2.2H7.3c-1.2,0-2.2-1-2.2-2.2v-2.4c0.1-1.1,1.1-2.1,2.2-2.1h15.2c1.2,0,2.2,1,2.2,2.1V129z
	 M24.7,109c-0.1,1.1-1.1,2.1-2.2,2.1H7.3c-1.2-0.1-2.2-1-2.2-2v-2.4c0.1-1.2,1.1-2.2,2.2-2.2h15.2c1.2,0,2.2,1,2.2,2.1V109z
	 M24.7,88.9c-0.1,1.2-1.1,2.2-2.2,2.2H7.3C6.1,91,5.1,90,5.1,88.9v-2.4c0.1-1.2,1.1-2.2,2.2-2.2h15.2c1.2,0.1,2.2,1.1,2.2,2.2V88.9z
	 M24.7,68.7c-0.1,1.2-1.1,2.2-2.2,2.2H7.3c-1.2,0-2.2-1-2.2-2.2v-2.4c0.1-1.1,1.1-2.1,2.2-2.1h15.2c1.2,0,2.2,1,2.2,2.1V68.7z
	 M24.7,48.6c-0.1,1.2-1.1,2.2-2.2,2.2H7.3c-1.2-0.1-2.2-1-2.2-2.3v-2.4C5.2,45,6.2,44,7.3,44h15.2c1.2,0.1,2.2,1.1,2.2,2.2V48.6z
	 M24.7,28.6c-0.1,1.1-1.1,2.1-2.2,2.1H7.3c-1.2,0-2.2-1-2.2-2.1v-2.4C5.2,25,6.2,24,7.3,24h15.2c1.2,0.1,2.2,1.1,2.2,2.2V28.6z"/>
</svg>
